<svg xmlns="http://www.w3.org/2000/svg" width="512" height="512" viewBox="0 0 512 512">
  <!-- Galleri Noir app-ikon: mörk bakgrund + mässingskanna, centrerad med maskable-säker padding -->
  <rect width="512" height="512" fill="#17150F"/>
  <g transform="translate(102 105) scale(4.8)">
    <path d="M25 7
      C 24.2 7, 23.5 7.8, 23.5 9
      C 23.5 13.5, 26.5 15.5, 26.5 20
      C 26.5 24.5, 17 27.5, 15 36
      C 12.8 45.5, 20.5 56, 32 56
      C 43.5 56, 51.2 45.5, 49 36
      C 47 27.5, 37.5 24.5, 37.5 20
      C 37.5 15.5, 40.5 13.5, 40.5 9
      C 40.5 7.8, 39.8 7, 39 7
      Z"
      fill="#C9A961"/>
    <path d="M22 38 C 22 44 25 49 30 50.5"
      stroke="#FFFFFF" stroke-width="2.5" stroke-linecap="round" fill="none" opacity="0.5"/>
  </g>
</svg>
